<?xml version="1.0" standalone="no"?>
<!DOCTYPE svg PUBLIC "-//W3C//DTD SVG 20010904//EN"
 "http://www.w3.org/TR/2001/REC-SVG-20010904/DTD/svg10.dtd">
<svg version="1.0" xmlns="http://www.w3.org/2000/svg"
 width="400.000000pt" height="400.000000pt" viewBox="0 0 400.000000 400.000000"
 preserveAspectRatio="xMidYMid meet">
<metadata>
Created by potrace 1.11, written by Peter Selinger 2001-2013
</metadata>
<g transform="translate(0.000000,400.000000) scale(0.100000,-0.100000)"
fill="#000000" stroke="none">
<path d="M1912 3849 c-87 -15 -146 -46 -207 -110 -64 -67 -90 -118 -104 -207
-12 -72 0 -164 29 -230 27 -60 121 -156 179 -181 109 -46 245 -44 343 5 63 32
145 114 175 175 31 63 44 156 32 230 -26 162 -156 292 -320 319 -35 5 -66 9
-69 9 -3 -1 -29 -5 -58 -10z"/>
<path d="M1237 2951 c-20 -24 -25 -43 -30 -122 -10 -158 -35 -242 -81 -280
-30 -25 -110 -43 -158 -35 -85 14 -152 69 -227 186 -52 81 -82 110 -113 110
-25 0 -313 -145 -338 -170 -12 -12 -20 -33 -20 -53 0 -27 307 -792 717 -1784
8 -19 1978 -19 1986 0 410 992 717 1757 717 1784 0 20 -8 41 -20 53 -25 25
-313 170 -338 170 -30 0 -59 -28 -105 -98 -83 -126 -180 -202 -257 -202 -46 0
-112 19 -136 39 -46 37 -71 122 -81 280 -5 79 -10 98 -30 122 l-25 29 -172 0
c-122 0 -177 -4 -188 -12 -9 -7 -37 -53 -63 -103 -55 -107 -90 -146 -169 -185
-83 -42 -169 -42 -252 0 -79 39 -114 78 -169 185 -26 50 -54 96 -63 103 -11 8
-66 12 -188 12 l-172 0 -25 -29z"/>
<path d="M689 654 c-22 -24 -24 -33 -24 -139 0 -106 2 -115 24 -139 l24 -26
1267 0 1267 0 24 26 c22 24 24 33 24 139 0 106 -2 115 -24 139 l-24 26 -1267
0 -1267 0 -24 -26z"/>
</g>
</svg>
